<svg xmlns="http://www.w3.org/2000/svg" width="16" height="16" viewBox="0 0 16 16">
  <path id="icons8-check-circle" d="M10.68,3A7.845,7.845,0,0,0,3,11a7.845,7.845,0,0,0,7.68,8,7.845,7.845,0,0,0,7.68-8,8.208,8.208,0,0,0-1.028-3.986l-7.2,7.5a.622.622,0,0,1-.905,0l-2.85-2.969a.686.686,0,0,1,0-.943.621.621,0,0,1,.9,0l2.4,2.5,6.912-7.2A7.545,7.545,0,0,0,10.68,3Zm5.914,2.9a8.1,8.1,0,0,1,.739,1.116l1.48-1.542a.686.686,0,0,0,0-.943.621.621,0,0,0-.9,0Z" transform="translate(-3 -3)" fill="#fff"/>
</svg>
