<svg xmlns="http://www.w3.org/2000/svg" xmlns:xlink="http://www.w3.org/1999/xlink" width="1266.285" height="746.392" viewBox="0 0 1266.285 746.392">
  <defs>
    <linearGradient id="linear-gradient" x1="0.5" x2="0.5" y2="1" gradientUnits="objectBoundingBox">
      <stop offset="0" stop-color="#0c0032"/>
      <stop offset="0.384" stop-color="#110045"/>
      <stop offset="1" stop-color="#190061"/>
    </linearGradient>
    <linearGradient id="linear-gradient-2" y1="0.5" x2="1" y2="0.5" gradientUnits="objectBoundingBox">
      <stop offset="0.161" stop-color="#3a76ed"/>
      <stop offset="0.813" stop-color="#5d5bf0"/>
      <stop offset="1" stop-color="#6853f1"/>
    </linearGradient>
    <linearGradient id="linear-gradient-3" x1="0.729" y1="-0.018" x2="0.191" y2="0.783" gradientUnits="objectBoundingBox">
      <stop offset="0.161" stop-color="#3a76ed"/>
      <stop offset="0.648" stop-color="#4752ef"/>
      <stop offset="1" stop-color="#5237f1"/>
    </linearGradient>
    <linearGradient id="linear-gradient-4" y1="0.5" x2="1" y2="0.5" gradientUnits="objectBoundingBox">
      <stop offset="0.161" stop-color="#3a76ed"/>
      <stop offset="0.813" stop-color="#4199ed"/>
      <stop offset="1" stop-color="#44a4ee"/>
    </linearGradient>
    <linearGradient id="linear-gradient-5" x1="-0.517" y1="0.5" x2="1" y2="0.5" gradientUnits="objectBoundingBox">
      <stop offset="0" stop-color="#5581f1"/>
      <stop offset="0.167" stop-color="#4777f3"/>
      <stop offset="0.715" stop-color="#205df9"/>
      <stop offset="1" stop-color="#1153fc"/>
    </linearGradient>
    <linearGradient id="linear-gradient-6" x1="-0.288" y1="1.269" x2="0.872" y2="0.164" gradientUnits="objectBoundingBox">
      <stop offset="0.161" stop-color="#3a76ed"/>
      <stop offset="0.466" stop-color="#5d78ed"/>
      <stop offset="1" stop-color="#a37cef"/>
    </linearGradient>
    <linearGradient id="linear-gradient-7" x1="-0.517" y1="0.5" x2="1" y2="0.5" gradientUnits="objectBoundingBox">
      <stop offset="0" stop-color="#facd68"/>
      <stop offset="1" stop-color="#fc76b3"/>
    </linearGradient>
    <linearGradient id="linear-gradient-8" x1="-0.517" y1="0.5" x2="1.282" y2="0.5" gradientUnits="objectBoundingBox">
      <stop offset="0" stop-color="#00f7a7"/>
      <stop offset="1" stop-color="#04f5ed"/>
    </linearGradient>
    <linearGradient id="linear-gradient-9" y1="0.5" x2="1" y2="0.5" gradientUnits="objectBoundingBox">
      <stop offset="0.161" stop-color="#3a76ed"/>
      <stop offset="0.713" stop-color="#4899ed"/>
      <stop offset="1" stop-color="#50adee"/>
    </linearGradient>
    <linearGradient id="linear-gradient-10" x1="-0.516" x2="1" xlink:href="#linear-gradient-8"/>
    <linearGradient id="linear-gradient-11" x1="-0.516" y1="0.5" x2="1.358" y2="0.5" gradientUnits="objectBoundingBox">
      <stop offset="0" stop-color="#1de5e2"/>
      <stop offset="1" stop-color="#b588f7"/>
    </linearGradient>
    <linearGradient id="linear-gradient-12" y1="0.5" x2="1" y2="0.5" gradientUnits="objectBoundingBox">
      <stop offset="0.161" stop-color="#3a76ed"/>
      <stop offset="0.627" stop-color="#4f52ef"/>
      <stop offset="1" stop-color="#6334f1"/>
    </linearGradient>
    <linearGradient id="linear-gradient-13" y1="0.5" x2="1" y2="0.5" gradientUnits="objectBoundingBox">
      <stop offset="0.161" stop-color="#00b3ea"/>
      <stop offset="0.687" stop-color="#008fed"/>
      <stop offset="1" stop-color="#0079f0"/>
    </linearGradient>
    <linearGradient id="linear-gradient-14" y1="0.5" x2="1" y2="0.5" gradientUnits="objectBoundingBox">
      <stop offset="0.161" stop-color="#5b62ed"/>
      <stop offset="0.486" stop-color="#3a85ec"/>
      <stop offset="1" stop-color="#00c4ec"/>
    </linearGradient>
    <linearGradient id="linear-gradient-15" y1="0.5" x2="1" y2="0.5" gradientUnits="objectBoundingBox">
      <stop offset="0.161" stop-color="#3a76ed"/>
      <stop offset="0.506" stop-color="#5d67ee"/>
      <stop offset="1" stop-color="#9650f0"/>
    </linearGradient>
    <linearGradient id="linear-gradient-16" y1="0.5" x2="3.887" y2="0.5" gradientUnits="objectBoundingBox">
      <stop offset="0" stop-color="#2a8968"/>
      <stop offset="1" stop-color="#08c75d"/>
    </linearGradient>
    <linearGradient id="linear-gradient-17" x1="-3.01" y1="0.5" x2="1.525" y2="0.5" gradientUnits="objectBoundingBox">
      <stop offset="0" stop-color="#5581f1"/>
      <stop offset="1" stop-color="#1153fc"/>
    </linearGradient>
    <linearGradient id="linear-gradient-18" y1="0.5" x2="1" y2="0.5" gradientUnits="objectBoundingBox">
      <stop offset="0.161" stop-color="#3a76ed"/>
      <stop offset="0.776" stop-color="#4b99ed"/>
      <stop offset="1" stop-color="#53a7ee"/>
    </linearGradient>
    <linearGradient id="linear-gradient-21" x1="-1.085" y1="0.568" x2="1.65" y2="0.5" xlink:href="#linear-gradient-6"/>
    <pattern id="pattern" preserveAspectRatio="none" width="100%" height="100%" viewBox="0 0 808 821">
      <image width="808" height="821" xlink:href="Group%201023-image.png"/>
    </pattern>
  </defs>
  <g id="Group_1023" data-name="Group 1023" transform="translate(2.643 -43.828)">
    <g id="Group_1022" data-name="Group 1022" transform="translate(-553.253 -3416.783)">
      <circle id="Ellipse_13" data-name="Ellipse 13" cx="104.5" cy="104.5" r="104.5" transform="translate(1563.253 3505.253)" fill="#fc4446" opacity="0.083"/>
      <circle id="Ellipse_14" data-name="Ellipse 14" cx="67.5" cy="67.5" r="67.5" transform="translate(1523.253 3610.253)" fill="#b133ff" opacity="0.083"/>
      <g id="Ellipse_10" data-name="Ellipse 10" transform="translate(833.253 3530.253)" fill="none" stroke="#b133ff" stroke-width="1" opacity="0.571">
        <circle cx="336" cy="336" r="336" stroke="none"/>
        <circle cx="336" cy="336" r="335.5" fill="none"/>
      </g>
      <circle id="Ellipse_11" data-name="Ellipse 11" cx="256.5" cy="256.5" r="256.5" transform="translate(912.253 3609.253)" fill="#240090" opacity="0.269"/>
      <circle id="Ellipse_12" data-name="Ellipse 12" cx="166.5" cy="166.5" r="166.5" transform="translate(595.253 3706.253)" fill="#8933ff" opacity="0.043"/>
    </g>
    <rect id="Rectangle_1" data-name="Rectangle 1" width="258.434" height="87.489" rx="7.038" transform="translate(211.812 56.224)" fill="url(#linear-gradient)" style="mix-blend-mode: screen;isolation: isolate"/>
    <g id="Group_1010" data-name="Group 1010" transform="translate(685.982 197.453)">
      <g id="Group_1000" data-name="Group 1000" transform="translate(0 0)">
        <g id="_3_SEED" data-name=" 3 SEED" transform="translate(25.833)" style="isolation: isolate">
          <text id="_3_SEED-2" data-name="3% SEED" transform="translate(0 17)" fill="#fff" font-size="17" font-family="SegoeUI, Segoe UI" style="isolation: isolate"><tspan x="0" y="0">3% SEED</tspan></text>
        </g>
        <circle id="Ellipse_8" data-name="Ellipse 8" cx="7.233" cy="7.233" r="7.233" transform="translate(0 5.675)" fill="#fff"/>
      </g>
      <g id="TGE_10_9_mths_Vesting_Period_monthly_liquid" data-name="TGE 10 9 mths Vesting Period monthly liquid" transform="translate(25.833 25.908)" style="isolation: isolate">
        <text id="TGE_5_9_mnths_Vesting_Period_monthly_liquid" data-name="TGE 5%, 9 mnths Vesting Period, monthly liquid" transform="translate(0 9)" fill="#fff" font-size="9" font-family="SegoeUI, Segoe UI" style="isolation: isolate"><tspan x="0" y="0">TGE 5%, 9 mnths Vesting Period, monthly liquid</tspan></text>
      </g>
    </g>
    <g id="Group_1224" data-name="Group 1224" transform="translate(778.508 244.749)">
      <g id="Group_1000-2" data-name="Group 1000-2">
        <g id="_7_PRIVATE_ROUND" data-name=" 7 PRIVATE ROUND" transform="translate(25.832)" style="isolation: isolate">
          <text id="_6_PRIVATE_ROUND" data-name="6% PRIVATE ROUND" transform="translate(0 17)" fill="#fff" font-size="17" font-family="SegoeUI, Segoe UI" style="isolation: isolate"><tspan x="0" y="0">6% PRIVATE ROUND</tspan></text>
        </g>
        <circle id="Ellipse_8-2" data-name="Ellipse 8-2" cx="7.233" cy="7.233" r="7.233" transform="translate(0 5.675)" fill="#fff"/>
      </g>
      <g id="TGE_10_9_mths_Vesting_Period_monthly_liquid-2" data-name="TGE 10 9 mths Vesting Period monthly liquid-2" transform="translate(25.832 25.908)" style="isolation: isolate">
        <text id="TGE_7_9_mnths_Vesting_Period_monthly_liquid" data-name="TGE 7%, 9 mnths Vesting Period, monthly liquid" transform="translate(0 9)" fill="#fff" font-size="9" font-family="SegoeUI, Segoe UI" style="isolation: isolate"><tspan x="0" y="0">TGE 7%, 9 mnths Vesting Period, monthly liquid</tspan></text>
      </g>
    </g>
    <g id="Group_1011" data-name="Group 1011" transform="translate(822.423 295.798)">
      <g id="Group_1001" data-name="Group 1001">
        <g id="_2_IDO_SALE" data-name=" 2 IDO SALE" transform="translate(25.833)" style="isolation: isolate">
          <text id="_3_IDO_SALE" data-name="3% IDO SALE" transform="translate(0 17)" fill="#fff" font-size="17" font-family="SegoeUI, Segoe UI" style="isolation: isolate"><tspan x="0" y="0">3% IDO SALE</tspan></text>
        </g>
        <circle id="Ellipse_8-3" data-name="Ellipse 8-3" cx="7.233" cy="7.233" r="7.233" transform="translate(0 4.641)" fill="#fff"/>
      </g>
      <g id="TGE_20_6_mths_Vesting_Period_monthly_liquid" data-name="TGE 20 6 mths Vesting Period monthly liquid" transform="translate(25.833 25.908)" style="isolation: isolate">
        <text id="TGE_10_6_mnths_Vesting_Period_" data-name="TGE 10%, 6 mnths Vesting Period, " transform="translate(0 9)" fill="#fff" font-size="9" font-family="SegoeUI, Segoe UI" style="isolation: isolate"><tspan x="0" y="0">TGE 10%, 6 mnths Vesting Period, </tspan></text>
        <text id="monthly_liquid" data-name="monthly liquid" transform="translate(0 21.401)" fill="#fff" font-size="9" font-family="SegoeUI, Segoe UI" style="isolation: isolate"><tspan x="0" y="0">monthly liquid</tspan></text>
      </g>
    </g>
    <g id="Group_1012" data-name="Group 1012" transform="translate(865.935 382.696)">
      <g id="Group_1002" data-name="Group 1002">
        <g id="_10_TEAM" data-name=" 10 TEAM" transform="translate(25.832)" style="isolation: isolate">
          <text id="_10_TEAM-2" data-name="10% TEAM" transform="translate(0 17)" fill="#fff" font-size="17" font-family="SegoeUI, Segoe UI" style="isolation: isolate"><tspan x="0" y="0">10% TEAM</tspan></text>
        </g>
        <circle id="Ellipse_8-4" data-name="Ellipse 8-4" cx="7.233" cy="7.233" r="7.233" transform="translate(0 5.674)" fill="#fff"/>
      </g>
      <g id="_9_mnths_cliff_24_mths_Vesting_Period_monthly_liquid" data-name=" 9 mnths cliff 24 mths Vesting Period monthly liquid" transform="translate(25.832 24.875)" style="isolation: isolate">
        <text id="_9_mnth_cliff_24_mnths_Vesting_" data-name="9 mnth cliff, 24 mnths Vesting " transform="translate(0 9)" fill="#fff" font-size="9" font-family="SegoeUI, Segoe UI" style="isolation: isolate"><tspan x="0" y="0">9 mnth cliff, 24 mnths Vesting </tspan></text>
        <text id="Period_monthly_liquid" data-name="Period, monthly liquid" transform="translate(0 21.399)" fill="#fff" font-size="9" font-family="SegoeUI, Segoe UI" style="isolation: isolate"><tspan x="0" y="0">Period, monthly liquid</tspan></text>
      </g>
    </g>
    <g id="Group_1013" data-name="Group 1013" transform="translate(859.577 482.811)">
      <g id="Group_1003" data-name="Group 1003">
        <g id="_5_ADVISOR" data-name=" 5 ADVISOR" transform="translate(25.832)" style="isolation: isolate">
          <text id="_5_ADVISOR-2" data-name="5% ADVISOR" transform="translate(0 17)" fill="#fff" font-size="17" font-family="SegoeUI, Segoe UI" style="isolation: isolate"><tspan x="0" y="0">5% ADVISOR</tspan></text>
        </g>
        <circle id="Ellipse_8-5" data-name="Ellipse 8-5" cx="7.233" cy="7.233" r="7.233" transform="translate(0 5.675)" fill="#fff"/>
      </g>
      <g id="_12_mths_Vesting_Period_quarterly_liquid" data-name=" 12 mths Vesting Period quarterly liquid" transform="translate(25.832 25.909)" style="isolation: isolate">
        <text id="_12_mnths_Vesting_Period_" data-name="12 mnths Vesting Period, " transform="translate(0 9)" fill="#fff" font-size="9" font-family="SegoeUI, Segoe UI" style="isolation: isolate"><tspan x="0" y="0">12 mnths Vesting Period, </tspan></text>
        <text id="quarterly_liquid" data-name="quarterly liquid" transform="translate(0 21.399)" fill="#fff" font-size="9" font-family="SegoeUI, Segoe UI" style="isolation: isolate"><tspan x="0" y="0">quarterly liquid</tspan></text>
      </g>
    </g>
    <g id="Group_1223" data-name="Group 1223" transform="translate(815.145 601.192)">
      <g id="Group_1003-2" data-name="Group 1003-2">
        <g id="_11_GAME_DEVELOPMENT" data-name=" 11 GAME DEVELOPMENT" transform="translate(25.833)" style="isolation: isolate">
          <text id="_14_GAME_DEVELOPMENT" data-name="14% GAME DEVELOPMENT" transform="translate(0 17)" fill="#fff" font-size="17" font-family="SegoeUI, Segoe UI" style="isolation: isolate"><tspan x="0" y="0">14% GAME DEVELOPMENT</tspan></text>
        </g>
        <circle id="Ellipse_8-6" data-name="Ellipse 8-6" cx="7.233" cy="7.233" r="7.233" transform="translate(0 5.676)" fill="#fff"/>
      </g>
      <g id="TGE_5_12_mths_Vesting_Period_monthly_liquid" data-name="TGE 5 12 mths Vesting Period monthly liquid" transform="translate(25.833 25.909)" style="isolation: isolate">
        <text id="_14_days_cliff_4_First_Liquid_24_mnths_Vesting_Period_monthly_liquid" data-name="14 days cliff, 4% First Liquid, 24 mnths
Vesting Period, monthly liquid" transform="translate(0 9)" fill="#fff" font-size="9" font-family="SegoeUI, Segoe UI" style="isolation: isolate"><tspan x="0" y="0">14 days cliff, 4% First Liquid, 24 mnths</tspan><tspan x="0" y="11">Vesting Period, monthly liquid</tspan></text>
      </g>
    </g>
    <g id="Group_1014" data-name="Group 1014" transform="translate(621.948 694.752)">
      <g id="Group_1004" data-name="Group 1004">
        <g id="_10_STAKING_REWARD" data-name=" 10 STAKING REWARD" transform="translate(25.833)" style="isolation: isolate">
          <text id="_10_STAKING_REWARD-2" data-name="10% STAKING REWARD" transform="translate(0 17)" fill="#fff" font-size="17" font-family="SegoeUI, Segoe UI" style="isolation: isolate"><tspan x="0" y="0">10% STAKING REWARD</tspan></text>
        </g>
        <ellipse id="Ellipse_8-7" data-name="Ellipse 8-7" cx="7.233" cy="6.716" rx="7.233" ry="6.716" transform="translate(0 6.708)" fill="#fff"/>
      </g>
      <g id="_36_mths_Vesting_Period_monthly_liquid_" data-name=" 36 mths Vesting Period monthly liquid " transform="translate(25.833 25.909)" style="isolation: isolate">
        <text id="_36_mnths_Vesting_Period_monthly_" data-name="36 mnths Vesting Period, monthly " transform="translate(0 9)" fill="#fff" font-size="9" font-family="SegoeUI, Segoe UI" style="isolation: isolate"><tspan x="0" y="0">36 mnths Vesting Period, monthly </tspan></text>
        <text id="liquid" transform="translate(0 21.399)" fill="#fff" font-size="9" font-family="SegoeUI, Segoe UI" style="isolation: isolate"><tspan x="0" y="0">liquid</tspan></text>
      </g>
    </g>
    <g id="Group_1015" data-name="Group 1015" transform="translate(276.424 669.294)">
      <g id="Group_1005" data-name="Group 1005">
        <g id="_9_ECOSYSTEM_FUND" data-name=" 9 ECOSYSTEM FUND" transform="translate(26.866)" style="isolation: isolate">
          <text id="_9_ECOSYSTEM_FUND-2" data-name="9% ECOSYSTEM FUND" transform="translate(0 17)" fill="#fff" font-size="17" font-family="SegoeUI, Segoe UI" style="isolation: isolate"><tspan x="0" y="0">9% ECOSYSTEM FUND</tspan></text>
        </g>
        <ellipse id="Ellipse_8-8" data-name="Ellipse 8-8" cx="7.75" cy="7.233" rx="7.75" ry="7.233" transform="translate(0 4.641)" fill="#fff"/>
      </g>
      <g id="_24_mths_Vesting_Period_monthly_liquid" data-name=" 24 mths Vesting Period monthly liquid" transform="translate(26.866 25.907)" style="isolation: isolate">
        <text id="_24_mnths_Vesting_Period_monthly_" data-name="24 mnths Vesting Period, monthly " transform="translate(0 9)" fill="#fff" font-size="9" font-family="SegoeUI, Segoe UI" style="isolation: isolate"><tspan x="0" y="0">24 mnths Vesting Period, monthly </tspan></text>
        <text id="liquid-2" data-name="liquid" transform="translate(0 21.399)" fill="#fff" font-size="9" font-family="SegoeUI, Segoe UI" style="isolation: isolate"><tspan x="0" y="0">liquid</tspan></text>
      </g>
    </g>
    <g id="Group_1016" data-name="Group 1016" transform="translate(136.357 580.148)">
      <g id="Group_1006" data-name="Group 1006">
        <g id="_5_AFFILIATE_MARKETING" data-name=" 5 AFFILIATE MARKETING" transform="translate(26.866)" style="isolation: isolate">
          <text id="_5_AFFILIATE_MARKETING-2" data-name="5% AFFILIATE &amp; MARKETING" transform="translate(0 17)" fill="#fff" font-size="17" font-family="SegoeUI, Segoe UI" style="isolation: isolate"><tspan x="0" y="0">5% AFFILIATE &amp; MARKETING</tspan></text>
        </g>
        <circle id="Ellipse_8-9" data-name="Ellipse 8-9" cx="7.75" cy="7.75" r="7.75" transform="translate(0 5.675)" fill="#fff"/>
      </g>
      <g id="_12_mths_Vesting_Period_monthly_liquid_" data-name=" 12 mths Vesting Period monthly liquid " transform="translate(26.866 25.908)" style="isolation: isolate">
        <text id="_12_mnths_Vesting_Period_monthly_liquid" data-name="12 mnths Vesting Period monthly liquid" transform="translate(0 9)" fill="#fff" font-size="9" font-family="SegoeUI, Segoe UI" style="isolation: isolate"><tspan x="0" y="0">12 mnths Vesting Period monthly liquid</tspan></text>
      </g>
    </g>
    <g id="Group_1017" data-name="Group 1017" transform="translate(92.753 398.775)">
      <g id="Group_1007" data-name="Group 1007">
        <g id="_20_PLAY_TO_EARN_REWARD" data-name=" 20 PLAY TO EARN REWARD" transform="translate(26.867)" style="isolation: isolate">
          <text id="_20_PLAY_TO_EARN_REWARD-2" data-name="20% PLAY TO EARN REWARD" transform="translate(0 17)" fill="#fff" font-size="17" font-family="SegoeUI, Segoe UI" style="isolation: isolate"><tspan x="0" y="0">20% PLAY TO EARN REWARD</tspan></text>
        </g>
        <ellipse id="Ellipse_8-10" data-name="Ellipse 8-10" cx="7.75" cy="7.233" rx="7.75" ry="7.233" transform="translate(0 4.641)" fill="#fff"/>
      </g>
      <g id="TGE_2_36_mths_Vesting_Period_monthly_liquid_" data-name="TGE 2 36 mths Vesting Period monthly liquid " transform="translate(26.867 25.907)" style="isolation: isolate">
        <text id="_14_days_cliff_2_First_Liquid_36_mnths_Vesting_Period_monthly_liquid" data-name="14 days cliff, 2% First Liquid, 36 mnths Vesting Period,
monthly liquid" transform="translate(0 9)" fill="#fff" font-size="9" font-family="SegoeUI, Segoe UI" style="isolation: isolate"><tspan x="0" y="0">14 days cliff, 2% First Liquid, 36 mnths Vesting Period,</tspan><tspan x="0" y="11">monthly liquid</tspan></text>
      </g>
    </g>
    <g id="Group_1009" data-name="Group 1009" transform="translate(624.614 139.353)">
      <g id="Group_999" data-name="Group 999">
        <g id="_3_PARTNERSHIP" data-name=" 3 PARTNERSHIP" transform="translate(25.833)" style="isolation: isolate">
          <text id="_3_PARTNERSHIP-2" data-name="3% PARTNERSHIP" transform="translate(0 17)" fill="#fff" font-size="17" font-family="SegoeUI, Segoe UI" style="isolation: isolate"><tspan x="0" y="0">3% PARTNERSHIP</tspan></text>
        </g>
        <circle id="Ellipse_8-11" data-name="Ellipse 8-11" cx="7.233" cy="7.233" r="7.233" transform="translate(0 5.675)" fill="#fff"/>
      </g>
      <g id="_12_mths_Vesting_Period_monthly_liquid_2" data-name=" 12 mths Vesting Period monthly liquid 2" transform="translate(25.833 25.908)" style="isolation: isolate">
        <text id="_12_mnths_Vesting_Period_monthly_liquid-2" data-name="12 mnths Vesting Period, monthly liquid" transform="translate(0 9)" fill="#fff" font-size="9" font-family="SegoeUI, Segoe UI" style="isolation: isolate"><tspan x="0" y="0">12 mnths Vesting Period, monthly liquid</tspan></text>
      </g>
    </g>
    <g id="Group_1009-2" data-name="Group 1009" transform="translate(345.825 173.629)">
      <g id="Group_999-2" data-name="Group 999">
        <g id="_3_PARTNERSHIP-3" data-name=" 3 PARTNERSHIP" transform="translate(25.833)" style="isolation: isolate">
          <text id="_2_RESERVES_INCENTIVES" data-name="2% RESERVES &amp; INCENTIVES" transform="translate(0 17)" fill="#fff" font-size="17" font-family="SegoeUI, Segoe UI" style="isolation: isolate"><tspan x="0" y="0">2% RESERVES &amp; INCENTIVES</tspan></text>
        </g>
        <circle id="Ellipse_8-11-2" data-name="Ellipse 8-11" cx="7.233" cy="7.233" r="7.233" transform="translate(0 5.675)" fill="#fff"/>
      </g>
      <g id="_12_mths_Vesting_Period_monthly_liquid_2-2" data-name=" 12 mths Vesting Period monthly liquid 2" transform="translate(25.833 25.908)" style="isolation: isolate">
        <text id="TGE_100_" data-name="TGE 100%" transform="translate(0 9)" fill="#fff" font-size="9" font-family="SegoeUI, Segoe UI" style="isolation: isolate"><tspan x="0" y="0">TGE 100%</tspan></text>
      </g>
    </g>
    <g id="Group_1018" data-name="Group 1018" transform="translate(194.13 232.996)">
      <g id="Group_1008" data-name="Group 1008" transform="translate(0 0)">
        <g id="_15_LIQUIDITY_INCENTIVES" data-name=" 15 LIQUIDITY INCENTIVES" transform="translate(26.866)" style="isolation: isolate">
          <text id="_10_LIQUIDITY_" data-name="10% LIQUIDITY " transform="translate(0 17)" fill="#fff" font-size="17" font-family="SegoeUI, Segoe UI" style="isolation: isolate"><tspan x="0" y="0">10% LIQUIDITY </tspan></text>
        </g>
        <ellipse id="Ellipse_8-12" data-name="Ellipse 8-12" cx="7.75" cy="7.233" rx="7.75" ry="7.233" transform="translate(0 5.675)" fill="#fff"/>
      </g>
      <g id="TGE_15_12_mth_Vesting_Period_monthly_liquid" data-name="TGE 15 12 mth Vesting Period monthly liquid" transform="translate(26.866 25.908)" style="isolation: isolate">
        <text id="TGE_10_12_mnths_Vesting_Period_monthly_liquid_Liquidity_will_be_lock_in_smart_contract" data-name="TGE 10%, 12 mnths Vesting Period, monthly liquid
*Liquidity will be lock in smart contract" transform="translate(0 9)" fill="#fff" font-size="9" font-family="SegoeUI, Segoe UI" style="isolation: isolate"><tspan x="0" y="0">TGE 10%, 12 mnths Vesting Period, monthly liquid</tspan><tspan x="0" y="11">*Liquidity will be lock in smart contract</tspan></text>
      </g>
    </g>
    <g id="Group_1023-2" data-name="Group 1023" transform="translate(237.799 67.12)">
      <g id="Initial_Circulating_Supply_at_TGE:_4.60_from_1M_Total_Supply" data-name="Initial Circulating Supply at TGE: 4.60 from 1M Total Supply" style="isolation: isolate">
        <text id="Initial_Circulating_Supply_at_TGE:" data-name="Initial Circulating Supply at TGE:" transform="translate(0 13)" fill="#fff" font-size="13" font-family="SegoeUI, Segoe UI" style="isolation: isolate"><tspan x="0" y="0">Initial Circulating Supply at TGE:</tspan></text>
        <text id="Initial_Market_Capital_435_000" data-name="Initial Market Capital $435,000" transform="translate(0 58.335)" fill="#fff" font-size="13" font-family="SegoeUI, Segoe UI" style="isolation: isolate"><tspan x="0" y="0">Initial Market Capital $435,000</tspan></text>
        <text id="_0.87_from_" data-name="0.87% from " transform="translate(0 32.209)" fill="#fff" font-size="15" font-family="SegoeUI, Segoe UI" style="isolation: isolate"><tspan x="0" y="0">0.87% from 1B</tspan></text>
        <!-- <text id="_1M" data-name="1M" transform="translate(92.79 32.209)" fill="#fff" font-size="15" font-family="SegoeUI, Segoe UI" style="isolation: isolate"><tspan x="0" y="0">1B</tspan></text> -->
        <text id="_Total_Supply" data-name=" Total Supply" transform="translate(99.567 32.209)" fill="#fff" font-size="15" font-family="SegoeUI, Segoe UI" style="isolation: isolate"><tspan x="0" y="0" xml:space="preserve"> Total Supply</tspan></text>
      </g>
    </g>
    <g id="Group_3" data-name="Group 3" transform="translate(398.483 234.042)">
      <g id="Group_2" data-name="Group 2">
        <path id="Path_1" data-name="Path 1" d="M1434.829,327.6l25.039-142a192.5,192.5,0,0,0-38.035-3.327V326.408A75.353,75.353,0,0,1,1434.829,327.6Z" transform="translate(-1202.144 -182.275)" fill="url(#linear-gradient-2)"/>
        <path id="Path_2" data-name="Path 2" d="M1496.619,195.9a211.814,211.814,0,0,0-40.4-11.2l-25.031,141.954a74.431,74.431,0,0,1,13.76,3.858Z" transform="translate(-1198.492 -181.327)" fill="url(#linear-gradient-3)"/>
        <path id="Path_3" data-name="Path 3" d="M1441.124,327.436a74.981,74.981,0,0,1,24.059,15.133l98.5-105.626a212.272,212.272,0,0,0-70.885-44.292l-.058.149.058.022Z" transform="translate(-1194.613 -178.224)" fill="url(#linear-gradient-4)"/>
        <path id="Path_4" data-name="Path 4" d="M1441.14,327.394l51.673-134.614-.058-.022-51.672,134.613Z" transform="translate(-1194.629 -178.183)" fill="url(#linear-gradient-5)"/>
        <path id="Path_5" data-name="Path 5" d="M1458.43,330.137a75.465,75.465,0,0,1,9.448,10.675l116.847-84.894a211.647,211.647,0,0,0-27.8-31.413v.006Z" transform="translate(-1187.857 -165.789)" fill="url(#linear-gradient-6)"/>
        <path id="Path_6" data-name="Path 6" d="M1458.43,330.135l98.5-105.626,0,0-98.5,105.626Z" transform="translate(-1187.857 -165.788)" fill="url(#linear-gradient-7)"/>
        <path id="Path_7" data-name="Path 7" d="M1458.43,330.135l98.5-105.626,0,0-98.5,105.626Z" transform="translate(-1187.857 -165.788)" fill="url(#linear-gradient-8)"/>
        <path id="Path_8" data-name="Path 8" d="M1465.243,332.032a74.659,74.659,0,0,1,14.328,43.8h144.351c0-48.388-13.389-89.6-41.831-128.747l-.026.018.026.033Z" transform="translate(-1185.197 -156.974)" fill="url(#linear-gradient-9)"/>
        <path id="Path_9" data-name="Path 9" d="M1465.25,332.027l116.848-84.9-.026-.033-116.847,84.894Z" transform="translate(-1185.204 -156.969)" fill="url(#linear-gradient-10)"/>
        <path id="Path_10" data-name="Path 10" d="M1465.25,332.027l116.848-84.9-.026-.033-116.847,84.894Z" transform="translate(-1185.204 -156.969)" fill="url(#linear-gradient-11)"/>
        <path id="Path_11" data-name="Path 11" d="M1476.538,339.683c0,.095.007.189.007.285a74.974,74.974,0,0,1-3.533,22.781l137.157,44.565-.017.049.017.006a208.227,208.227,0,0,0,10.72-67.685Z" transform="translate(-1182.164 -120.826)" fill="url(#linear-gradient-12)"/>
        <path id="Path_12" data-name="Path 12" d="M1442.1,402.875l53.877,133.35c62.8-25.37,105.308-70.95,126.247-135.352l-137.157-44.565A75.209,75.209,0,0,1,1442.1,402.875Z" transform="translate(-1194.233 -114.336)" fill="url(#linear-gradient-13)"/>
        <path id="Path_13" data-name="Path 13" d="M1418.461,393.247l-34.737,139.32h0l-.007.024c46.952,11.707,90.177,8.683,135.042-9.443L1464.882,389.8a75.077,75.077,0,0,1-46.421,3.445Z" transform="translate(-1217.025 -101.26)" fill="url(#linear-gradient-14)"/>
        <path id="Path_14" data-name="Path 14" d="M1411.772,377.339l-103.261,99.72c30.25,31.325,62.314,49.837,104.568,60.373l34.736-139.32A74.892,74.892,0,0,1,1411.772,377.339Z" transform="translate(-1246.383 -106.125)" fill="url(#linear-gradient-15)"/>
        <path id="Path_15" data-name="Path 15" d="M1418.459,392.28h0L1383.719,531.6h0Z" transform="translate(-1217.023 -100.293)" fill="url(#linear-gradient-16)"/>
        <path id="Path_16" data-name="Path 16" d="M1418.459,392.28h0L1383.719,531.6h0Z" transform="translate(-1217.023 -100.293)" fill="url(#linear-gradient-17)"/>
        <path id="Path_17" data-name="Path 17" d="M1280.325,426.422a208.171,208.171,0,0,0,39.189,55.9l103.194-99.654a75.136,75.136,0,0,1-13.41-19.148Z" transform="translate(-1257.386 -111.521)" fill="url(#linear-gradient-18)"/>
        <path id="Path_18" data-name="Path 18" d="M1415.618,416.809a75.018,75.018,0,0,1,15.789-86.867L1331.418,226.4C1261.8,293.627,1244.281,393,1286.7,479.98l.061-.029c-.039-.081-.079-.159-.118-.238Z" transform="translate(-1263.827 -165.05)" fill="url(#linear-gradient-12)"/>
        <path id="Path_19" data-name="Path 19" d="M1434.054,183.872l.088-.011-.031-.217c-47.917,6.735-86.863,25.73-121.671,59.343l100.041,103.6a74.746,74.746,0,0,1,41.627-20.022Z" transform="translate(-1244.849 -181.741)" fill="url(#linear-gradient-2)"/>
        <path id="Path_20" data-name="Path 20" d="M1430.041,326.4c.11,0,.217.008.327.008V182.275a230.7,230.7,0,0,0-30.4,2.12l20.054,142.689A75.578,75.578,0,0,1,1430.041,326.4Z" transform="translate(-1210.678 -182.275)" fill="url(#linear-gradient-21)"/>
      </g>
      <text id="_3_" data-name="3%" transform="matrix(1, -0.002, 0.002, 1, 364.087, 103.425)" fill="#fff" font-size="12" font-family="SegoeUI, Segoe UI"><tspan x="-16.289" y="0">3%</tspan></text>
      <text id="_3_2" data-name="3%" transform="matrix(1, 0.029, -0.029, 1, 278.538, 41.507)" fill="#fff" font-size="12" font-family="SegoeUI, Segoe UI"><tspan x="-16.289" y="0">3%</tspan></text>
      <text id="_6_" data-name="6%" transform="matrix(0.999, 0.04, -0.04, 0.999, 323.259, 70.93)" fill="#fff" font-size="12" font-family="SegoeUI, Segoe UI"><tspan x="-16.289" y="0">6%</tspan></text>
      <text id="_3_3" data-name="3%" transform="matrix(1, 0.006, -0.006, 1, 245.888, 32.457)" fill="#fff" font-size="12" font-family="SegoeUI, Segoe UI"><tspan x="-16.289" y="0">3%</tspan></text>
      <text id="_10_" data-name="10%" transform="translate(405.096 168.103)" fill="#fff" font-size="12" font-family="SegoeUI, Segoe UI"><tspan x="-22.758" y="0">10%</tspan></text>
      <text id="_5_" data-name="5%" transform="translate(405.709 250.005)" fill="#fff" font-size="12" font-family="SegoeUI, Segoe UI"><tspan x="-16.289" y="0">5%</tspan></text>
      <text id="_5_2" data-name="5%" transform="translate(80.61 327.551) rotate(-0.03)" fill="#fff" font-size="12" font-family="SegoeUI, Segoe UI"><tspan x="-16.289" y="0">5%</tspan></text>
      <text id="_9_" data-name="9%" transform="matrix(1, -0.017, 0.018, 1, 138.53, 379.45)" fill="#fff" font-size="12" font-family="SegoeUI, Segoe UI"><tspan x="-16.289" y="0">9%</tspan></text>
      <text id="_20_" data-name="20%" transform="translate(56.106 192.619)" fill="#fff" font-size="12" font-family="SegoeUI, Segoe UI"><tspan x="-22.758" y="0">20%</tspan></text>
      <text id="_10_2" data-name="10%" transform="matrix(1, 0.024, -0.024, 1, 157.186, 51.753)" fill="#fff" font-size="12" font-family="SegoeUI, Segoe UI"><tspan x="-22.758" y="0">10%</tspan></text>
      <text id="_2_" data-name="2%" transform="matrix(0.999, 0.036, -0.037, 0.999, 216.609, 33.798)" fill="#fff" font-size="12" font-family="SegoeUI, Segoe UI"><tspan x="-16.289" y="0">2%</tspan></text>
      <text id="_10_3" data-name="10%" transform="matrix(1, -0.009, 0.008, 1, 246.26, 401.639)" fill="#fff" font-size="12" font-family="SegoeUI, Segoe UI"><tspan x="-22.758" y="0">10%</tspan></text>
      <text id="_14_" data-name="14%" transform="matrix(1, -0.011, 0.012, 1, 362.836, 341.558)" fill="#fff" font-size="12" font-family="SegoeUI, Segoe UI"><tspan x="-22.758" y="0">14%</tspan></text>
    </g>
    <rect id="Image_1" data-name="Image 1" width="88" height="89" transform="translate(574 409)" fill="url(#pattern)"/>
  </g>
</svg>
